<svg width="490" height="914" viewBox="0 0 490 914" fill="none" xmlns="http://www.w3.org/2000/svg">
<rect x="0.5" y="0.5" width="489" height="913" rx="7.5" fill="white" stroke="#BABABA"/>
<path d="M97.896 21.32V33.344C97.896 34.832 97.44 36.008 96.528 36.872C95.632 37.736 94.448 38.168 92.976 38.168C91.504 38.168 90.312 37.736 89.4 36.872C88.504 36.008 88.056 34.832 88.056 33.344H90.816C90.832 34.08 91.016 34.664 91.368 35.096C91.736 35.528 92.272 35.744 92.976 35.744C93.68 35.744 94.216 35.528 94.584 35.096C94.952 34.648 95.136 34.064 95.136 33.344V21.32H97.896ZM109.187 24.56C110.195 24.56 111.091 24.776 111.875 25.208C112.675 25.64 113.299 26.28 113.747 27.128C114.211 27.976 114.443 29 114.443 30.2V38H111.731V30.608C111.731 29.424 111.435 28.52 110.843 27.896C110.251 27.256 109.443 26.936 108.419 26.936C107.395 26.936 106.579 27.256 105.971 27.896C105.379 28.52 105.083 29.424 105.083 30.608V38H102.347V20.24H105.083V26.312C105.547 25.752 106.131 25.32 106.835 25.016C107.555 24.712 108.339 24.56 109.187 24.56ZM123.669 38.216C122.421 38.216 121.293 37.936 120.285 37.376C119.277 36.8 118.485 36 117.909 34.976C117.333 33.936 117.045 32.736 117.045 31.376C117.045 30.032 117.341 28.84 117.933 27.8C118.525 26.76 119.333 25.96 120.357 25.4C121.381 24.84 122.525 24.56 123.789 24.56C125.053 24.56 126.197 24.84 127.221 25.4C128.245 25.96 129.053 26.76 129.645 27.8C130.237 28.84 130.533 30.032 130.533 31.376C130.533 32.72 130.229 33.912 129.621 34.952C129.013 35.992 128.181 36.8 127.125 37.376C126.085 37.936 124.933 38.216 123.669 38.216ZM123.669 35.84C124.373 35.84 125.029 35.672 125.637 35.336C126.261 35 126.765 34.496 127.149 33.824C127.533 33.152 127.725 32.336 127.725 31.376C127.725 30.416 127.541 29.608 127.173 28.952C126.805 28.28 126.317 27.776 125.709 27.44C125.101 27.104 124.445 26.936 123.741 26.936C123.037 26.936 122.381 27.104 121.773 27.44C121.181 27.776 120.709 28.28 120.357 28.952C120.005 29.608 119.829 30.416 119.829 31.376C119.829 32.8 120.189 33.904 120.909 34.688C121.645 35.456 122.565 35.84 123.669 35.84ZM139.91 24.56C140.95 24.56 141.878 24.776 142.694 25.208C143.526 25.64 144.174 26.28 144.638 27.128C145.102 27.976 145.334 29 145.334 30.2V38H142.622V30.608C142.622 29.424 142.326 28.52 141.734 27.896C141.142 27.256 140.334 26.936 139.31 26.936C138.286 26.936 137.47 27.256 136.862 27.896C136.27 28.52 135.974 29.424 135.974 30.608V38H133.238V24.776H135.974V26.288C136.422 25.744 136.99 25.32 137.678 25.016C138.382 24.712 139.126 24.56 139.91 24.56ZM160.506 21.32C162.282 21.32 163.834 21.664 165.162 22.352C166.506 23.024 167.538 24 168.258 25.28C168.994 26.544 169.362 28.024 169.362 29.72C169.362 31.416 168.994 32.888 168.258 34.136C167.538 35.384 166.506 36.344 165.162 37.016C163.834 37.672 162.282 38 160.506 38H155.058V21.32H160.506ZM160.506 35.768C162.458 35.768 163.954 35.24 164.994 34.184C166.034 33.128 166.554 31.64 166.554 29.72C166.554 27.784 166.034 26.272 164.994 25.184C163.954 24.096 162.458 23.552 160.506 23.552H157.794V35.768H160.506ZM177.809 38.216C176.561 38.216 175.433 37.936 174.425 37.376C173.417 36.8 172.625 36 172.049 34.976C171.473 33.936 171.185 32.736 171.185 31.376C171.185 30.032 171.481 28.84 172.073 27.8C172.665 26.76 173.473 25.96 174.497 25.4C175.521 24.84 176.665 24.56 177.929 24.56C179.193 24.56 180.337 24.84 181.361 25.4C182.385 25.96 183.193 26.76 183.785 27.8C184.377 28.84 184.673 30.032 184.673 31.376C184.673 32.72 184.369 33.912 183.761 34.952C183.153 35.992 182.321 36.8 181.265 37.376C180.225 37.936 179.073 38.216 177.809 38.216ZM177.809 35.84C178.513 35.84 179.169 35.672 179.777 35.336C180.401 35 180.905 34.496 181.289 33.824C181.673 33.152 181.865 32.336 181.865 31.376C181.865 30.416 181.681 29.608 181.313 28.952C180.945 28.28 180.457 27.776 179.849 27.44C179.241 27.104 178.585 26.936 177.881 26.936C177.177 26.936 176.521 27.104 175.913 27.44C175.321 27.776 174.849 28.28 174.497 28.952C174.145 29.608 173.969 30.416 173.969 31.376C173.969 32.8 174.329 33.904 175.049 34.688C175.785 35.456 176.705 35.84 177.809 35.84ZM199.498 31.064C199.498 31.56 199.466 32.008 199.402 32.408H189.298C189.378 33.464 189.77 34.312 190.474 34.952C191.178 35.592 192.042 35.912 193.066 35.912C194.538 35.912 195.578 35.296 196.186 34.064H199.138C198.738 35.28 198.01 36.28 196.954 37.064C195.914 37.832 194.618 38.216 193.066 38.216C191.802 38.216 190.666 37.936 189.658 37.376C188.666 36.8 187.882 36 187.306 34.976C186.746 33.936 186.466 32.736 186.466 31.376C186.466 30.016 186.738 28.824 187.282 27.8C187.842 26.76 188.618 25.96 189.61 25.4C190.618 24.84 191.77 24.56 193.066 24.56C194.314 24.56 195.426 24.832 196.402 25.376C197.378 25.92 198.138 26.688 198.682 27.68C199.226 28.656 199.498 29.784 199.498 31.064ZM196.642 30.2C196.626 29.192 196.266 28.384 195.562 27.776C194.858 27.168 193.986 26.864 192.946 26.864C192.002 26.864 191.194 27.168 190.522 27.776C189.85 28.368 189.45 29.176 189.322 30.2H196.642Z" fill="black"/>
<path d="M96.065 47.545V48.655H91.52V52.18H95.21V53.29H91.52V58H90.155V47.545H96.065ZM99.0786 51.115C99.3186 50.645 99.6586 50.28 100.099 50.02C100.549 49.76 101.094 49.63 101.734 49.63V51.04H101.374C99.8436 51.04 99.0786 51.87 99.0786 53.53V58H97.7136V49.78H99.0786V51.115ZM104.014 48.445C103.754 48.445 103.534 48.355 103.354 48.175C103.174 47.995 103.084 47.775 103.084 47.515C103.084 47.255 103.174 47.035 103.354 46.855C103.534 46.675 103.754 46.585 104.014 46.585C104.264 46.585 104.474 46.675 104.644 46.855C104.824 47.035 104.914 47.255 104.914 47.515C104.914 47.775 104.824 47.995 104.644 48.175C104.474 48.355 104.264 48.445 104.014 48.445ZM104.674 49.78V58H103.309V49.78H104.674ZM114.501 53.575C114.501 53.835 114.486 54.11 114.456 54.4H107.886C107.936 55.21 108.211 55.845 108.711 56.305C109.221 56.755 109.836 56.98 110.556 56.98C111.146 56.98 111.636 56.845 112.026 56.575C112.426 56.295 112.706 55.925 112.866 55.465H114.336C114.116 56.255 113.676 56.9 113.016 57.4C112.356 57.89 111.536 58.135 110.556 58.135C109.776 58.135 109.076 57.96 108.456 57.61C107.846 57.26 107.366 56.765 107.016 56.125C106.666 55.475 106.491 54.725 106.491 53.875C106.491 53.025 106.661 52.28 107.001 51.64C107.341 51 107.816 50.51 108.426 50.17C109.046 49.82 109.756 49.645 110.556 49.645C111.336 49.645 112.026 49.815 112.626 50.155C113.226 50.495 113.686 50.965 114.006 51.565C114.336 52.155 114.501 52.825 114.501 53.575ZM113.091 53.29C113.091 52.77 112.976 52.325 112.746 51.955C112.516 51.575 112.201 51.29 111.801 51.1C111.411 50.9 110.976 50.8 110.496 50.8C109.806 50.8 109.216 51.02 108.726 51.46C108.246 51.9 107.971 52.51 107.901 53.29H113.091ZM120.307 49.63C121.307 49.63 122.117 49.935 122.737 50.545C123.357 51.145 123.667 52.015 123.667 53.155V58H122.317V53.35C122.317 52.53 122.112 51.905 121.702 51.475C121.292 51.035 120.732 50.815 120.022 50.815C119.302 50.815 118.727 51.04 118.297 51.49C117.877 51.94 117.667 52.595 117.667 53.455V58H116.302V49.78H117.667V50.95C117.937 50.53 118.302 50.205 118.762 49.975C119.232 49.745 119.747 49.63 120.307 49.63ZM125.387 53.86C125.387 53.02 125.557 52.285 125.897 51.655C126.237 51.015 126.702 50.52 127.292 50.17C127.892 49.82 128.562 49.645 129.302 49.645C129.942 49.645 130.537 49.795 131.087 50.095C131.637 50.385 132.057 50.77 132.347 51.25V46.9H133.727V58H132.347V56.455C132.077 56.945 131.677 57.35 131.147 57.67C130.617 57.98 129.997 58.135 129.287 58.135C128.557 58.135 127.892 57.955 127.292 57.595C126.702 57.235 126.237 56.73 125.897 56.08C125.557 55.43 125.387 54.69 125.387 53.86ZM132.347 53.875C132.347 53.255 132.222 52.715 131.972 52.255C131.722 51.795 131.382 51.445 130.952 51.205C130.532 50.955 130.067 50.83 129.557 50.83C129.047 50.83 128.582 50.95 128.162 51.19C127.742 51.43 127.407 51.78 127.157 52.24C126.907 52.7 126.782 53.24 126.782 53.86C126.782 54.49 126.907 55.04 127.157 55.51C127.407 55.97 127.742 56.325 128.162 56.575C128.582 56.815 129.047 56.935 129.557 56.935C130.067 56.935 130.532 56.815 130.952 56.575C131.382 56.325 131.722 55.97 131.972 55.51C132.222 55.04 132.347 54.495 132.347 53.875Z" fill="black"/>
<rect x="432.5" y="831.5" width="42" height="47" rx="1.5" fill="white" stroke="#E8E8E8"/>
<path d="M454 843.625C455.222 843.625 456.393 844.148 457.257 845.078C458.121 846.008 458.606 847.27 458.606 848.585V854.717C458.606 856.032 458.12 857.294 457.257 858.224C456.393 859.154 455.221 859.677 454 859.677V859.677C452.779 859.677 451.607 859.154 450.743 858.224C449.88 857.294 449.394 856.032 449.394 854.717V848.585C449.394 847.27 449.879 846.008 450.743 845.078C451.607 844.148 452.778 843.625 454 843.625V843.625Z" stroke="#2F88FF" stroke-linecap="round" stroke-linejoin="round"/>
<path d="M446.88 866.375H461.12M446.88 856.193C447.199 857.975 448.084 859.581 449.383 860.737C450.683 861.892 452.315 862.524 454 862.524C455.685 862.524 457.317 861.892 458.617 860.737C459.916 859.581 460.801 857.975 461.12 856.193H446.88ZM454 862.524V866.375V862.524Z" stroke="#2F88FF" stroke-linecap="round" stroke-linejoin="round"/>
<rect x="29" y="683" width="293" height="85" fill="#EFEFEF"/>
<rect x="173" y="530" width="293" height="85" fill="#EFEFEF"/>
<path d="M292.448 774.66V780.672C292.448 781.416 292.22 782.004 291.764 782.436C291.316 782.868 290.724 783.084 289.988 783.084C289.252 783.084 288.656 782.868 288.2 782.436C287.752 782.004 287.528 781.416 287.528 780.672H288.908C288.916 781.04 289.008 781.332 289.184 781.548C289.368 781.764 289.636 781.872 289.988 781.872C290.34 781.872 290.608 781.764 290.792 781.548C290.976 781.324 291.068 781.032 291.068 780.672V774.66H292.448ZM298.093 776.28C298.597 776.28 299.045 776.388 299.437 776.604C299.837 776.82 300.149 777.14 300.373 777.564C300.605 777.988 300.721 778.5 300.721 779.1V783H299.365V779.304C299.365 778.712 299.217 778.26 298.921 777.948C298.625 777.628 298.221 777.468 297.709 777.468C297.197 777.468 296.789 777.628 296.485 777.948C296.189 778.26 296.041 778.712 296.041 779.304V783H294.673V774.12H296.041V777.156C296.273 776.876 296.565 776.66 296.917 776.508C297.277 776.356 297.669 776.28 298.093 776.28ZM305.334 783.108C304.71 783.108 304.146 782.968 303.642 782.688C303.138 782.4 302.742 782 302.454 781.488C302.166 780.968 302.022 780.368 302.022 779.688C302.022 779.016 302.17 778.42 302.466 777.9C302.762 777.38 303.166 776.98 303.678 776.7C304.19 776.42 304.762 776.28 305.394 776.28C306.026 776.28 306.598 776.42 307.11 776.7C307.622 776.98 308.026 777.38 308.322 777.9C308.618 778.42 308.766 779.016 308.766 779.688C308.766 780.36 308.614 780.956 308.31 781.476C308.006 781.996 307.59 782.4 307.062 782.688C306.542 782.968 305.966 783.108 305.334 783.108ZM305.334 781.92C305.686 781.92 306.014 781.836 306.318 781.668C306.63 781.5 306.882 781.248 307.074 780.912C307.266 780.576 307.362 780.168 307.362 779.688C307.362 779.208 307.27 778.804 307.086 778.476C306.902 778.14 306.658 777.888 306.354 777.72C306.05 777.552 305.722 777.468 305.37 777.468C305.018 777.468 304.69 777.552 304.386 777.72C304.09 777.888 303.854 778.14 303.678 778.476C303.502 778.804 303.414 779.208 303.414 779.688C303.414 780.4 303.594 780.952 303.954 781.344C304.322 781.728 304.782 781.92 305.334 781.92ZM313.455 776.28C313.975 776.28 314.439 776.388 314.847 776.604C315.263 776.82 315.587 777.14 315.819 777.564C316.051 777.988 316.167 778.5 316.167 779.1V783H314.811V779.304C314.811 778.712 314.663 778.26 314.367 777.948C314.071 777.628 313.667 777.468 313.155 777.468C312.643 777.468 312.235 777.628 311.931 777.948C311.635 778.26 311.487 778.712 311.487 779.304V783H310.119V776.388H311.487V777.144C311.711 776.872 311.995 776.66 312.339 776.508C312.691 776.356 313.063 776.28 313.455 776.28ZM323.753 774.66C324.641 774.66 325.417 774.832 326.081 775.176C326.753 775.512 327.269 776 327.629 776.64C327.997 777.272 328.181 778.012 328.181 778.86C328.181 779.708 327.997 780.444 327.629 781.068C327.269 781.692 326.753 782.172 326.081 782.508C325.417 782.836 324.641 783 323.753 783H321.029V774.66H323.753ZM323.753 781.884C324.729 781.884 325.477 781.62 325.997 781.092C326.517 780.564 326.777 779.82 326.777 778.86C326.777 777.892 326.517 777.136 325.997 776.592C325.477 776.048 324.729 775.776 323.753 775.776H322.397V781.884H323.753ZM330.089 783.084C329.841 783.084 329.633 783 329.465 782.832C329.297 782.664 329.213 782.456 329.213 782.208C329.213 781.96 329.297 781.752 329.465 781.584C329.633 781.416 329.841 781.332 330.089 781.332C330.329 781.332 330.533 781.416 330.701 781.584C330.869 781.752 330.953 781.96 330.953 782.208C330.953 782.456 330.869 782.664 330.701 782.832C330.533 783 330.329 783.084 330.089 783.084Z" fill="black"/>
<path d="M183.684 619.66V628H182.316V622.288L179.772 628H178.824L176.268 622.288V628H174.9V619.66H176.376L179.304 626.2L182.22 619.66H183.684ZM191.542 624.532C191.542 624.78 191.526 625.004 191.494 625.204H186.442C186.482 625.732 186.678 626.156 187.03 626.476C187.382 626.796 187.814 626.956 188.326 626.956C189.062 626.956 189.582 626.648 189.886 626.032H191.362C191.162 626.64 190.798 627.14 190.27 627.532C189.75 627.916 189.102 628.108 188.326 628.108C187.694 628.108 187.126 627.968 186.622 627.688C186.126 627.4 185.734 627 185.446 626.488C185.166 625.968 185.026 625.368 185.026 624.688C185.026 624.008 185.162 623.412 185.434 622.9C185.714 622.38 186.102 621.98 186.598 621.7C187.102 621.42 187.678 621.28 188.326 621.28C188.95 621.28 189.506 621.416 189.994 621.688C190.482 621.96 190.862 622.344 191.134 622.84C191.406 623.328 191.542 623.892 191.542 624.532ZM190.114 624.1C190.106 623.596 189.926 623.192 189.574 622.888C189.222 622.584 188.786 622.432 188.266 622.432C187.794 622.432 187.39 622.584 187.054 622.888C186.718 623.184 186.518 623.588 186.454 624.1H190.114Z" fill="black"/>
<rect x="29" y="376" width="293" height="85" fill="#EFEFEF"/>
<rect x="173" y="223" width="293" height="85" fill="#EFEFEF"/>
<path d="M292.448 467.66V473.672C292.448 474.416 292.22 475.004 291.764 475.436C291.316 475.868 290.724 476.084 289.988 476.084C289.252 476.084 288.656 475.868 288.2 475.436C287.752 475.004 287.528 474.416 287.528 473.672H288.908C288.916 474.04 289.008 474.332 289.184 474.548C289.368 474.764 289.636 474.872 289.988 474.872C290.34 474.872 290.608 474.764 290.792 474.548C290.976 474.324 291.068 474.032 291.068 473.672V467.66H292.448ZM298.093 469.28C298.597 469.28 299.045 469.388 299.437 469.604C299.837 469.82 300.149 470.14 300.373 470.564C300.605 470.988 300.721 471.5 300.721 472.1V476H299.365V472.304C299.365 471.712 299.217 471.26 298.921 470.948C298.625 470.628 298.221 470.468 297.709 470.468C297.197 470.468 296.789 470.628 296.485 470.948C296.189 471.26 296.041 471.712 296.041 472.304V476H294.673V467.12H296.041V470.156C296.273 469.876 296.565 469.66 296.917 469.508C297.277 469.356 297.669 469.28 298.093 469.28ZM305.334 476.108C304.71 476.108 304.146 475.968 303.642 475.688C303.138 475.4 302.742 475 302.454 474.488C302.166 473.968 302.022 473.368 302.022 472.688C302.022 472.016 302.17 471.42 302.466 470.9C302.762 470.38 303.166 469.98 303.678 469.7C304.19 469.42 304.762 469.28 305.394 469.28C306.026 469.28 306.598 469.42 307.11 469.7C307.622 469.98 308.026 470.38 308.322 470.9C308.618 471.42 308.766 472.016 308.766 472.688C308.766 473.36 308.614 473.956 308.31 474.476C308.006 474.996 307.59 475.4 307.062 475.688C306.542 475.968 305.966 476.108 305.334 476.108ZM305.334 474.92C305.686 474.92 306.014 474.836 306.318 474.668C306.63 474.5 306.882 474.248 307.074 473.912C307.266 473.576 307.362 473.168 307.362 472.688C307.362 472.208 307.27 471.804 307.086 471.476C306.902 471.14 306.658 470.888 306.354 470.72C306.05 470.552 305.722 470.468 305.37 470.468C305.018 470.468 304.69 470.552 304.386 470.72C304.09 470.888 303.854 471.14 303.678 471.476C303.502 471.804 303.414 472.208 303.414 472.688C303.414 473.4 303.594 473.952 303.954 474.344C304.322 474.728 304.782 474.92 305.334 474.92ZM313.455 469.28C313.975 469.28 314.439 469.388 314.847 469.604C315.263 469.82 315.587 470.14 315.819 470.564C316.051 470.988 316.167 471.5 316.167 472.1V476H314.811V472.304C314.811 471.712 314.663 471.26 314.367 470.948C314.071 470.628 313.667 470.468 313.155 470.468C312.643 470.468 312.235 470.628 311.931 470.948C311.635 471.26 311.487 471.712 311.487 472.304V476H310.119V469.388H311.487V470.144C311.711 469.872 311.995 469.66 312.339 469.508C312.691 469.356 313.063 469.28 313.455 469.28ZM323.753 467.66C324.641 467.66 325.417 467.832 326.081 468.176C326.753 468.512 327.269 469 327.629 469.64C327.997 470.272 328.181 471.012 328.181 471.86C328.181 472.708 327.997 473.444 327.629 474.068C327.269 474.692 326.753 475.172 326.081 475.508C325.417 475.836 324.641 476 323.753 476H321.029V467.66H323.753ZM323.753 474.884C324.729 474.884 325.477 474.62 325.997 474.092C326.517 473.564 326.777 472.82 326.777 471.86C326.777 470.892 326.517 470.136 325.997 469.592C325.477 469.048 324.729 468.776 323.753 468.776H322.397V474.884H323.753ZM330.089 476.084C329.841 476.084 329.633 476 329.465 475.832C329.297 475.664 329.213 475.456 329.213 475.208C329.213 474.96 329.297 474.752 329.465 474.584C329.633 474.416 329.841 474.332 330.089 474.332C330.329 474.332 330.533 474.416 330.701 474.584C330.869 474.752 330.953 474.96 330.953 475.208C330.953 475.456 330.869 475.664 330.701 475.832C330.533 476 330.329 476.084 330.089 476.084Z" fill="black"/>
<path d="M183.684 312.66V321H182.316V315.288L179.772 321H178.824L176.268 315.288V321H174.9V312.66H176.376L179.304 319.2L182.22 312.66H183.684ZM191.542 317.532C191.542 317.78 191.526 318.004 191.494 318.204H186.442C186.482 318.732 186.678 319.156 187.03 319.476C187.382 319.796 187.814 319.956 188.326 319.956C189.062 319.956 189.582 319.648 189.886 319.032H191.362C191.162 319.64 190.798 320.14 190.27 320.532C189.75 320.916 189.102 321.108 188.326 321.108C187.694 321.108 187.126 320.968 186.622 320.688C186.126 320.4 185.734 320 185.446 319.488C185.166 318.968 185.026 318.368 185.026 317.688C185.026 317.008 185.162 316.412 185.434 315.9C185.714 315.38 186.102 314.98 186.598 314.7C187.102 314.42 187.678 314.28 188.326 314.28C188.95 314.28 189.506 314.416 189.994 314.688C190.482 314.96 190.862 315.344 191.134 315.84C191.406 316.328 191.542 316.892 191.542 317.532ZM190.114 317.1C190.106 316.596 189.926 316.192 189.574 315.888C189.222 315.584 188.786 315.432 188.266 315.432C187.794 315.432 187.39 315.584 187.054 315.888C186.718 316.184 186.518 316.588 186.454 317.1H190.114Z" fill="black"/>
<rect x="87.5" y="132.5" width="321" height="24" rx="12" stroke="#DFDFDF"/>
<path d="M126.072 140.636V141.524H123.792V149H122.7V141.524H120.408V140.636H126.072ZM130.68 142.304C131.176 142.304 131.624 142.412 132.024 142.628C132.424 142.836 132.736 143.152 132.96 143.576C133.192 144 133.308 144.516 133.308 145.124V149H132.228V145.28C132.228 144.624 132.064 144.124 131.736 143.78C131.408 143.428 130.96 143.252 130.392 143.252C129.816 143.252 129.356 143.432 129.012 143.792C128.676 144.152 128.508 144.676 128.508 145.364V149H127.416V140.12H128.508V143.36C128.724 143.024 129.02 142.764 129.396 142.58C129.78 142.396 130.208 142.304 130.68 142.304ZM135.656 141.356C135.448 141.356 135.272 141.284 135.128 141.14C134.984 140.996 134.912 140.82 134.912 140.612C134.912 140.404 134.984 140.228 135.128 140.084C135.272 139.94 135.448 139.868 135.656 139.868C135.856 139.868 136.024 139.94 136.16 140.084C136.304 140.228 136.376 140.404 136.376 140.612C136.376 140.82 136.304 140.996 136.16 141.14C136.024 141.284 135.856 141.356 135.656 141.356ZM136.184 142.424V149H135.092V142.424H136.184ZM140.373 149.108C139.869 149.108 139.417 149.024 139.017 148.856C138.617 148.68 138.301 148.44 138.069 148.136C137.837 147.824 137.709 147.468 137.685 147.068H138.813C138.845 147.396 138.997 147.664 139.269 147.872C139.549 148.08 139.913 148.184 140.361 148.184C140.777 148.184 141.105 148.092 141.345 147.908C141.585 147.724 141.705 147.492 141.705 147.212C141.705 146.924 141.577 146.712 141.321 146.576C141.065 146.432 140.669 146.292 140.133 146.156C139.645 146.028 139.245 145.9 138.933 145.772C138.629 145.636 138.365 145.44 138.141 145.184C137.925 144.92 137.817 144.576 137.817 144.152C137.817 143.816 137.917 143.508 138.117 143.228C138.317 142.948 138.601 142.728 138.969 142.568C139.337 142.4 139.757 142.316 140.229 142.316C140.957 142.316 141.545 142.5 141.993 142.868C142.441 143.236 142.681 143.74 142.713 144.38H141.621C141.597 144.036 141.457 143.76 141.201 143.552C140.953 143.344 140.617 143.24 140.193 143.24C139.801 143.24 139.489 143.324 139.257 143.492C139.025 143.66 138.909 143.88 138.909 144.152C138.909 144.368 138.977 144.548 139.113 144.692C139.257 144.828 139.433 144.94 139.641 145.028C139.857 145.108 140.153 145.2 140.529 145.304C141.001 145.432 141.385 145.56 141.681 145.688C141.977 145.808 142.229 145.992 142.437 146.24C142.653 146.488 142.765 146.812 142.773 147.212C142.773 147.572 142.673 147.896 142.473 148.184C142.273 148.472 141.989 148.7 141.621 148.868C141.261 149.028 140.845 149.108 140.373 149.108ZM155.422 142.304C155.934 142.304 156.39 142.412 156.79 142.628C157.19 142.836 157.506 143.152 157.738 143.576C157.97 144 158.086 144.516 158.086 145.124V149H157.006V145.28C157.006 144.624 156.842 144.124 156.514 143.78C156.194 143.428 155.758 143.252 155.206 143.252C154.638 143.252 154.186 143.436 153.85 143.804C153.514 144.164 153.346 144.688 153.346 145.376V149H152.266V145.28C152.266 144.624 152.102 144.124 151.774 143.78C151.454 143.428 151.018 143.252 150.466 143.252C149.898 143.252 149.446 143.436 149.11 143.804C148.774 144.164 148.606 144.688 148.606 145.376V149H147.514V142.424H148.606V143.372C148.822 143.028 149.11 142.764 149.47 142.58C149.838 142.396 150.242 142.304 150.682 142.304C151.234 142.304 151.722 142.428 152.146 142.676C152.57 142.924 152.886 143.288 153.094 143.768C153.278 143.304 153.582 142.944 154.006 142.688C154.43 142.432 154.902 142.304 155.422 142.304ZM165.877 145.46C165.877 145.668 165.865 145.888 165.841 146.12H160.585C160.625 146.768 160.845 147.276 161.245 147.644C161.653 148.004 162.145 148.184 162.721 148.184C163.193 148.184 163.585 148.076 163.897 147.86C164.217 147.636 164.441 147.34 164.569 146.972H165.745C165.569 147.604 165.217 148.12 164.689 148.52C164.161 148.912 163.505 149.108 162.721 149.108C162.097 149.108 161.537 148.968 161.041 148.688C160.553 148.408 160.169 148.012 159.889 147.5C159.609 146.98 159.469 146.38 159.469 145.7C159.469 145.02 159.605 144.424 159.877 143.912C160.149 143.4 160.529 143.008 161.017 142.736C161.513 142.456 162.081 142.316 162.721 142.316C163.345 142.316 163.897 142.452 164.377 142.724C164.857 142.996 165.225 143.372 165.481 143.852C165.745 144.324 165.877 144.86 165.877 145.46ZM164.749 145.232C164.749 144.816 164.657 144.46 164.473 144.164C164.289 143.86 164.037 143.632 163.717 143.48C163.405 143.32 163.057 143.24 162.673 143.24C162.121 143.24 161.649 143.416 161.257 143.768C160.873 144.12 160.653 144.608 160.597 145.232H164.749ZM169.647 149.108C169.143 149.108 168.691 149.024 168.291 148.856C167.891 148.68 167.575 148.44 167.343 148.136C167.111 147.824 166.983 147.468 166.959 147.068H168.087C168.119 147.396 168.271 147.664 168.543 147.872C168.823 148.08 169.187 148.184 169.635 148.184C170.051 148.184 170.379 148.092 170.619 147.908C170.859 147.724 170.979 147.492 170.979 147.212C170.979 146.924 170.851 146.712 170.595 146.576C170.339 146.432 169.943 146.292 169.407 146.156C168.919 146.028 168.519 145.9 168.207 145.772C167.903 145.636 167.639 145.44 167.415 145.184C167.199 144.92 167.091 144.576 167.091 144.152C167.091 143.816 167.191 143.508 167.391 143.228C167.591 142.948 167.875 142.728 168.243 142.568C168.611 142.4 169.031 142.316 169.503 142.316C170.231 142.316 170.819 142.5 171.267 142.868C171.715 143.236 171.955 143.74 171.987 144.38H170.895C170.871 144.036 170.731 143.76 170.475 143.552C170.227 143.344 169.891 143.24 169.467 143.24C169.075 143.24 168.763 143.324 168.531 143.492C168.299 143.66 168.183 143.88 168.183 144.152C168.183 144.368 168.251 144.548 168.387 144.692C168.531 144.828 168.707 144.94 168.915 145.028C169.131 145.108 169.427 145.2 169.803 145.304C170.275 145.432 170.659 145.56 170.955 145.688C171.251 145.808 171.503 145.992 171.711 146.24C171.927 146.488 172.039 146.812 172.047 147.212C172.047 147.572 171.947 147.896 171.747 148.184C171.547 148.472 171.263 148.7 170.895 148.868C170.535 149.028 170.119 149.108 169.647 149.108ZM175.916 149.108C175.412 149.108 174.96 149.024 174.56 148.856C174.16 148.68 173.844 148.44 173.612 148.136C173.38 147.824 173.252 147.468 173.228 147.068H174.356C174.388 147.396 174.54 147.664 174.812 147.872C175.092 148.08 175.456 148.184 175.904 148.184C176.32 148.184 176.648 148.092 176.888 147.908C177.128 147.724 177.248 147.492 177.248 147.212C177.248 146.924 177.12 146.712 176.864 146.576C176.608 146.432 176.212 146.292 175.676 146.156C175.188 146.028 174.788 145.9 174.476 145.772C174.172 145.636 173.908 145.44 173.684 145.184C173.468 144.92 173.36 144.576 173.36 144.152C173.36 143.816 173.46 143.508 173.66 143.228C173.86 142.948 174.144 142.728 174.512 142.568C174.88 142.4 175.3 142.316 175.772 142.316C176.5 142.316 177.088 142.5 177.536 142.868C177.984 143.236 178.224 143.74 178.256 144.38H177.164C177.14 144.036 177 143.76 176.744 143.552C176.496 143.344 176.16 143.24 175.736 143.24C175.344 143.24 175.032 143.324 174.8 143.492C174.568 143.66 174.452 143.88 174.452 144.152C174.452 144.368 174.52 144.548 174.656 144.692C174.8 144.828 174.976 144.94 175.184 145.028C175.4 145.108 175.696 145.2 176.072 145.304C176.544 145.432 176.928 145.56 177.224 145.688C177.52 145.808 177.772 145.992 177.98 146.24C178.196 146.488 178.308 146.812 178.316 147.212C178.316 147.572 178.216 147.896 178.016 148.184C177.816 148.472 177.532 148.7 177.164 148.868C176.804 149.028 176.388 149.108 175.916 149.108ZM185.858 145.46C185.858 145.668 185.846 145.888 185.822 146.12H180.566C180.606 146.768 180.826 147.276 181.226 147.644C181.634 148.004 182.126 148.184 182.702 148.184C183.174 148.184 183.566 148.076 183.878 147.86C184.198 147.636 184.422 147.34 184.55 146.972H185.726C185.55 147.604 185.198 148.12 184.67 148.52C184.142 148.912 183.486 149.108 182.702 149.108C182.078 149.108 181.518 148.968 181.022 148.688C180.534 148.408 180.15 148.012 179.87 147.5C179.59 146.98 179.45 146.38 179.45 145.7C179.45 145.02 179.586 144.424 179.858 143.912C180.13 143.4 180.51 143.008 180.998 142.736C181.494 142.456 182.062 142.316 182.702 142.316C183.326 142.316 183.878 142.452 184.358 142.724C184.838 142.996 185.206 143.372 185.462 143.852C185.726 144.324 185.858 144.86 185.858 145.46ZM184.73 145.232C184.73 144.816 184.638 144.46 184.454 144.164C184.27 143.86 184.018 143.632 183.698 143.48C183.386 143.32 183.038 143.24 182.654 143.24C182.102 143.24 181.63 143.416 181.238 143.768C180.854 144.12 180.634 144.608 180.578 145.232H184.73ZM190.503 142.304C191.303 142.304 191.951 142.548 192.447 143.036C192.943 143.516 193.191 144.212 193.191 145.124V149H192.111V145.28C192.111 144.624 191.947 144.124 191.619 143.78C191.291 143.428 190.843 143.252 190.275 143.252C189.699 143.252 189.239 143.432 188.895 143.792C188.559 144.152 188.391 144.676 188.391 145.364V149H187.299V142.424H188.391V143.36C188.607 143.024 188.899 142.764 189.267 142.58C189.643 142.396 190.055 142.304 190.503 142.304ZM197.687 142.316C198.255 142.316 198.751 142.44 199.175 142.688C199.607 142.936 199.927 143.248 200.135 143.624V142.424H201.239V149.144C201.239 149.744 201.111 150.276 200.855 150.74C200.599 151.212 200.231 151.58 199.751 151.844C199.279 152.108 198.727 152.24 198.095 152.24C197.231 152.24 196.511 152.036 195.935 151.628C195.359 151.22 195.019 150.664 194.915 149.96H195.995C196.115 150.36 196.363 150.68 196.739 150.92C197.115 151.168 197.567 151.292 198.095 151.292C198.695 151.292 199.183 151.104 199.559 150.728C199.943 150.352 200.135 149.824 200.135 149.144V147.764C199.919 148.148 199.599 148.468 199.175 148.724C198.751 148.98 198.255 149.108 197.687 149.108C197.103 149.108 196.571 148.964 196.091 148.676C195.619 148.388 195.247 147.984 194.975 147.464C194.703 146.944 194.567 146.352 194.567 145.688C194.567 145.016 194.703 144.428 194.975 143.924C195.247 143.412 195.619 143.016 196.091 142.736C196.571 142.456 197.103 142.316 197.687 142.316ZM200.135 145.7C200.135 145.204 200.035 144.772 199.835 144.404C199.635 144.036 199.363 143.756 199.019 143.564C198.683 143.364 198.311 143.264 197.903 143.264C197.495 143.264 197.123 143.36 196.787 143.552C196.451 143.744 196.183 144.024 195.983 144.392C195.783 144.76 195.683 145.192 195.683 145.688C195.683 146.192 195.783 146.632 195.983 147.008C196.183 147.376 196.451 147.66 196.787 147.86C197.123 148.052 197.495 148.148 197.903 148.148C198.311 148.148 198.683 148.052 199.019 147.86C199.363 147.66 199.635 147.376 199.835 147.008C200.035 146.632 200.135 146.196 200.135 145.7ZM209.084 145.46C209.084 145.668 209.072 145.888 209.048 146.12H203.792C203.832 146.768 204.052 147.276 204.452 147.644C204.86 148.004 205.352 148.184 205.928 148.184C206.4 148.184 206.792 148.076 207.104 147.86C207.424 147.636 207.648 147.34 207.776 146.972H208.952C208.776 147.604 208.424 148.12 207.896 148.52C207.368 148.912 206.712 149.108 205.928 149.108C205.304 149.108 204.744 148.968 204.248 148.688C203.76 148.408 203.376 148.012 203.096 147.5C202.816 146.98 202.676 146.38 202.676 145.7C202.676 145.02 202.812 144.424 203.084 143.912C203.356 143.4 203.736 143.008 204.224 142.736C204.72 142.456 205.288 142.316 205.928 142.316C206.552 142.316 207.104 142.452 207.584 142.724C208.064 142.996 208.432 143.372 208.688 143.852C208.952 144.324 209.084 144.86 209.084 145.46ZM207.956 145.232C207.956 144.816 207.864 144.46 207.68 144.164C207.496 143.86 207.244 143.632 206.924 143.48C206.612 143.32 206.264 143.24 205.88 143.24C205.328 143.24 204.856 143.416 204.464 143.768C204.08 144.12 203.86 144.608 203.804 145.232H207.956ZM211.618 143.492C211.81 143.116 212.082 142.824 212.434 142.616C212.794 142.408 213.23 142.304 213.742 142.304V143.432H213.454C212.23 143.432 211.618 144.096 211.618 145.424V149H210.526V142.424H211.618V143.492ZM217.793 145.7C217.793 145.02 217.929 144.428 218.201 143.924C218.473 143.412 218.849 143.016 219.329 142.736C219.817 142.456 220.373 142.316 220.997 142.316C221.805 142.316 222.469 142.512 222.989 142.904C223.517 143.296 223.865 143.84 224.033 144.536H222.857C222.745 144.136 222.525 143.82 222.197 143.588C221.877 143.356 221.477 143.24 220.997 143.24C220.373 143.24 219.869 143.456 219.485 143.888C219.101 144.312 218.909 144.916 218.909 145.7C218.909 146.492 219.101 147.104 219.485 147.536C219.869 147.968 220.373 148.184 220.997 148.184C221.477 148.184 221.877 148.072 222.197 147.848C222.517 147.624 222.737 147.304 222.857 146.888H224.033C223.857 147.56 223.505 148.1 222.977 148.508C222.449 148.908 221.789 149.108 220.997 149.108C220.373 149.108 219.817 148.968 219.329 148.688C218.849 148.408 218.473 148.012 218.201 147.5C217.929 146.988 217.793 146.388 217.793 145.7ZM228.754 142.304C229.25 142.304 229.698 142.412 230.098 142.628C230.498 142.836 230.81 143.152 231.034 143.576C231.266 144 231.382 144.516 231.382 145.124V149H230.302V145.28C230.302 144.624 230.138 144.124 229.81 143.78C229.482 143.428 229.034 143.252 228.466 143.252C227.89 143.252 227.43 143.432 227.086 143.792C226.75 144.152 226.582 144.676 226.582 145.364V149H225.49V140.12H226.582V143.36C226.798 143.024 227.094 142.764 227.47 142.58C227.854 142.396 228.282 142.304 228.754 142.304ZM232.758 145.688C232.758 145.016 232.894 144.428 233.166 143.924C233.438 143.412 233.81 143.016 234.282 142.736C234.762 142.456 235.294 142.316 235.878 142.316C236.454 142.316 236.954 142.44 237.378 142.688C237.802 142.936 238.118 143.248 238.326 143.624V142.424H239.43V149H238.326V147.776C238.11 148.16 237.786 148.48 237.354 148.736C236.93 148.984 236.434 149.108 235.866 149.108C235.282 149.108 234.754 148.964 234.282 148.676C233.81 148.388 233.438 147.984 233.166 147.464C232.894 146.944 232.758 146.352 232.758 145.688ZM238.326 145.7C238.326 145.204 238.226 144.772 238.026 144.404C237.826 144.036 237.554 143.756 237.21 143.564C236.874 143.364 236.502 143.264 236.094 143.264C235.686 143.264 235.314 143.36 234.978 143.552C234.642 143.744 234.374 144.024 234.174 144.392C233.974 144.76 233.874 145.192 233.874 145.688C233.874 146.192 233.974 146.632 234.174 147.008C234.374 147.376 234.642 147.66 234.978 147.86C235.314 148.052 235.686 148.148 236.094 148.148C236.502 148.148 236.874 148.052 237.21 147.86C237.554 147.66 237.826 147.376 238.026 147.008C238.226 146.632 238.326 146.196 238.326 145.7ZM242.608 143.324V147.2C242.608 147.52 242.676 147.748 242.812 147.884C242.948 148.012 243.184 148.076 243.52 148.076H244.324V149H243.34C242.732 149 242.276 148.86 241.972 148.58C241.668 148.3 241.516 147.84 241.516 147.2V143.324H240.664V142.424H241.516V140.768H242.608V142.424H244.324V143.324H242.608ZM249.41 141.356C249.202 141.356 249.026 141.284 248.882 141.14C248.738 140.996 248.666 140.82 248.666 140.612C248.666 140.404 248.738 140.228 248.882 140.084C249.026 139.94 249.202 139.868 249.41 139.868C249.61 139.868 249.778 139.94 249.914 140.084C250.058 140.228 250.13 140.404 250.13 140.612C250.13 140.82 250.058 140.996 249.914 141.14C249.778 141.284 249.61 141.356 249.41 141.356ZM249.938 142.424V149H248.846V142.424H249.938ZM254.127 149.108C253.623 149.108 253.171 149.024 252.771 148.856C252.371 148.68 252.055 148.44 251.823 148.136C251.591 147.824 251.463 147.468 251.439 147.068H252.567C252.599 147.396 252.751 147.664 253.023 147.872C253.303 148.08 253.667 148.184 254.115 148.184C254.531 148.184 254.859 148.092 255.099 147.908C255.339 147.724 255.459 147.492 255.459 147.212C255.459 146.924 255.331 146.712 255.075 146.576C254.819 146.432 254.423 146.292 253.887 146.156C253.399 146.028 252.999 145.9 252.687 145.772C252.383 145.636 252.119 145.44 251.895 145.184C251.679 144.92 251.571 144.576 251.571 144.152C251.571 143.816 251.671 143.508 251.871 143.228C252.071 142.948 252.355 142.728 252.723 142.568C253.091 142.4 253.511 142.316 253.983 142.316C254.711 142.316 255.299 142.5 255.747 142.868C256.195 143.236 256.435 143.74 256.467 144.38H255.375C255.351 144.036 255.211 143.76 254.955 143.552C254.707 143.344 254.371 143.24 253.947 143.24C253.555 143.24 253.243 143.324 253.011 143.492C252.779 143.66 252.663 143.88 252.663 144.152C252.663 144.368 252.731 144.548 252.867 144.692C253.011 144.828 253.187 144.94 253.395 145.028C253.611 145.108 253.907 145.2 254.283 145.304C254.755 145.432 255.139 145.56 255.435 145.688C255.731 145.808 255.983 145.992 256.191 146.24C256.407 146.488 256.519 146.812 256.527 147.212C256.527 147.572 256.427 147.896 256.227 148.184C256.027 148.472 255.743 148.7 255.375 148.868C255.015 149.028 254.599 149.108 254.127 149.108ZM267.268 145.46C267.268 145.668 267.256 145.888 267.232 146.12H261.976C262.016 146.768 262.236 147.276 262.636 147.644C263.044 148.004 263.536 148.184 264.112 148.184C264.584 148.184 264.976 148.076 265.288 147.86C265.608 147.636 265.832 147.34 265.96 146.972H267.136C266.96 147.604 266.608 148.12 266.08 148.52C265.552 148.912 264.896 149.108 264.112 149.108C263.488 149.108 262.928 148.968 262.432 148.688C261.944 148.408 261.56 148.012 261.28 147.5C261 146.98 260.86 146.38 260.86 145.7C260.86 145.02 260.996 144.424 261.268 143.912C261.54 143.4 261.92 143.008 262.408 142.736C262.904 142.456 263.472 142.316 264.112 142.316C264.736 142.316 265.288 142.452 265.768 142.724C266.248 142.996 266.616 143.372 266.872 143.852C267.136 144.324 267.268 144.86 267.268 145.46ZM266.14 145.232C266.14 144.816 266.048 144.46 265.864 144.164C265.68 143.86 265.428 143.632 265.108 143.48C264.796 143.32 264.448 143.24 264.064 143.24C263.512 143.24 263.04 143.416 262.648 143.768C262.264 144.12 262.044 144.608 261.988 145.232H266.14ZM271.913 142.304C272.713 142.304 273.361 142.548 273.857 143.036C274.353 143.516 274.601 144.212 274.601 145.124V149H273.521V145.28C273.521 144.624 273.357 144.124 273.029 143.78C272.701 143.428 272.253 143.252 271.685 143.252C271.109 143.252 270.649 143.432 270.305 143.792C269.969 144.152 269.801 144.676 269.801 145.364V149H268.709V142.424H269.801V143.36C270.017 143.024 270.309 142.764 270.677 142.58C271.053 142.396 271.465 142.304 271.913 142.304ZM275.977 145.7C275.977 145.02 276.113 144.428 276.385 143.924C276.657 143.412 277.033 143.016 277.513 142.736C278.001 142.456 278.557 142.316 279.181 142.316C279.989 142.316 280.653 142.512 281.173 142.904C281.701 143.296 282.049 143.84 282.217 144.536H281.041C280.929 144.136 280.709 143.82 280.381 143.588C280.061 143.356 279.661 143.24 279.181 143.24C278.557 143.24 278.053 143.456 277.669 143.888C277.285 144.312 277.093 144.916 277.093 145.7C277.093 146.492 277.285 147.104 277.669 147.536C278.053 147.968 278.557 148.184 279.181 148.184C279.661 148.184 280.061 148.072 280.381 147.848C280.701 147.624 280.921 147.304 281.041 146.888H282.217C282.041 147.56 281.689 148.1 281.161 148.508C280.633 148.908 279.973 149.108 279.181 149.108C278.557 149.108 278.001 148.968 277.513 148.688C277.033 148.408 276.657 148.012 276.385 147.5C276.113 146.988 275.977 146.388 275.977 145.7ZM284.766 143.492C284.958 143.116 285.23 142.824 285.582 142.616C285.942 142.408 286.378 142.304 286.89 142.304V143.432H286.602C285.378 143.432 284.766 144.096 284.766 145.424V149H283.674V142.424H284.766V143.492ZM293.815 142.424L289.855 152.096H288.727L290.023 148.928L287.371 142.424H288.583L290.647 147.752L292.687 142.424H293.815ZM296.004 143.636C296.22 143.26 296.54 142.948 296.964 142.7C297.396 142.444 297.896 142.316 298.464 142.316C299.048 142.316 299.576 142.456 300.048 142.736C300.528 143.016 300.904 143.412 301.176 143.924C301.448 144.428 301.584 145.016 301.584 145.688C301.584 146.352 301.448 146.944 301.176 147.464C300.904 147.984 300.528 148.388 300.048 148.676C299.576 148.964 299.048 149.108 298.464 149.108C297.904 149.108 297.408 148.984 296.976 148.736C296.552 148.48 296.228 148.164 296.004 147.788V152.12H294.912V142.424H296.004V143.636ZM300.468 145.688C300.468 145.192 300.368 144.76 300.168 144.392C299.968 144.024 299.696 143.744 299.352 143.552C299.016 143.36 298.644 143.264 298.236 143.264C297.836 143.264 297.464 143.364 297.12 143.564C296.784 143.756 296.512 144.04 296.304 144.416C296.104 144.784 296.004 145.212 296.004 145.7C296.004 146.196 296.104 146.632 296.304 147.008C296.512 147.376 296.784 147.66 297.12 147.86C297.464 148.052 297.836 148.148 298.236 148.148C298.644 148.148 299.016 148.052 299.352 147.86C299.696 147.66 299.968 147.376 300.168 147.008C300.368 146.632 300.468 146.192 300.468 145.688ZM304.354 143.324V147.2C304.354 147.52 304.422 147.748 304.558 147.884C304.694 148.012 304.93 148.076 305.266 148.076H306.07V149H305.086C304.478 149 304.022 148.86 303.718 148.58C303.414 148.3 303.262 147.84 303.262 147.2V143.324H302.41V142.424H303.262V140.768H304.354V142.424H306.07V143.324H304.354ZM313.393 145.46C313.393 145.668 313.381 145.888 313.357 146.12H308.101C308.141 146.768 308.361 147.276 308.761 147.644C309.169 148.004 309.661 148.184 310.237 148.184C310.709 148.184 311.101 148.076 311.413 147.86C311.733 147.636 311.957 147.34 312.085 146.972H313.261C313.085 147.604 312.733 148.12 312.205 148.52C311.677 148.912 311.021 149.108 310.237 149.108C309.613 149.108 309.053 148.968 308.557 148.688C308.069 148.408 307.685 148.012 307.405 147.5C307.125 146.98 306.985 146.38 306.985 145.7C306.985 145.02 307.121 144.424 307.393 143.912C307.665 143.4 308.045 143.008 308.533 142.736C309.029 142.456 309.597 142.316 310.237 142.316C310.861 142.316 311.413 142.452 311.893 142.724C312.373 142.996 312.741 143.372 312.997 143.852C313.261 144.324 313.393 144.86 313.393 145.46ZM312.265 145.232C312.265 144.816 312.173 144.46 311.989 144.164C311.805 143.86 311.553 143.632 311.233 143.48C310.921 143.32 310.573 143.24 310.189 143.24C309.637 143.24 309.165 143.416 308.773 143.768C308.389 144.12 308.169 144.608 308.113 145.232H312.265ZM314.426 145.688C314.426 145.016 314.562 144.428 314.834 143.924C315.106 143.412 315.478 143.016 315.95 142.736C316.43 142.456 316.966 142.316 317.558 142.316C318.07 142.316 318.546 142.436 318.986 142.676C319.426 142.908 319.762 143.216 319.994 143.6V140.12H321.098V149H319.994V147.764C319.778 148.156 319.458 148.48 319.034 148.736C318.61 148.984 318.114 149.108 317.546 149.108C316.962 149.108 316.43 148.964 315.95 148.676C315.478 148.388 315.106 147.984 314.834 147.464C314.562 146.944 314.426 146.352 314.426 145.688ZM319.994 145.7C319.994 145.204 319.894 144.772 319.694 144.404C319.494 144.036 319.222 143.756 318.878 143.564C318.542 143.364 318.17 143.264 317.762 143.264C317.354 143.264 316.982 143.36 316.646 143.552C316.31 143.744 316.042 144.024 315.842 144.392C315.642 144.76 315.542 145.192 315.542 145.688C315.542 146.192 315.642 146.632 315.842 147.008C316.042 147.376 316.31 147.66 316.646 147.86C316.982 148.052 317.354 148.148 317.762 148.148C318.17 148.148 318.542 148.052 318.878 147.86C319.222 147.66 319.494 147.376 319.694 147.008C319.894 146.632 319.994 146.196 319.994 145.7ZM327.235 143.648C327.459 143.256 327.787 142.936 328.219 142.688C328.651 142.44 329.143 142.316 329.695 142.316C330.287 142.316 330.819 142.456 331.291 142.736C331.763 143.016 332.135 143.412 332.407 143.924C332.679 144.428 332.815 145.016 332.815 145.688C332.815 146.352 332.679 146.944 332.407 147.464C332.135 147.984 331.759 148.388 331.279 148.676C330.807 148.964 330.279 149.108 329.695 149.108C329.127 149.108 328.627 148.984 328.195 148.736C327.771 148.488 327.451 148.172 327.235 147.788V149H326.143V140.12H327.235V143.648ZM331.699 145.688C331.699 145.192 331.599 144.76 331.399 144.392C331.199 144.024 330.927 143.744 330.583 143.552C330.247 143.36 329.875 143.264 329.467 143.264C329.067 143.264 328.695 143.364 328.351 143.564C328.015 143.756 327.743 144.04 327.535 144.416C327.335 144.784 327.235 145.212 327.235 145.7C327.235 146.196 327.335 146.632 327.535 147.008C327.743 147.376 328.015 147.66 328.351 147.86C328.695 148.052 329.067 148.148 329.467 148.148C329.875 148.148 330.247 148.052 330.583 147.86C330.927 147.66 331.199 147.376 331.399 147.008C331.599 146.632 331.699 146.192 331.699 145.688ZM339.916 142.424L335.956 152.096H334.828L336.124 148.928L333.472 142.424H334.684L336.748 147.752L338.788 142.424H339.916ZM345.545 143.324V147.2C345.545 147.52 345.613 147.748 345.749 147.884C345.885 148.012 346.121 148.076 346.457 148.076H347.261V149H346.277C345.669 149 345.213 148.86 344.909 148.58C344.605 148.3 344.453 147.84 344.453 147.2V143.324H343.601V142.424H344.453V140.768H345.545V142.424H347.261V143.324H345.545ZM349.148 141.356C348.94 141.356 348.764 141.284 348.62 141.14C348.476 140.996 348.404 140.82 348.404 140.612C348.404 140.404 348.476 140.228 348.62 140.084C348.764 139.94 348.94 139.868 349.148 139.868C349.348 139.868 349.516 139.94 349.652 140.084C349.796 140.228 349.868 140.404 349.868 140.612C349.868 140.82 349.796 140.996 349.652 141.14C349.516 141.284 349.348 141.356 349.148 141.356ZM349.676 142.424V149H348.584V142.424H349.676ZM359.445 142.304C359.957 142.304 360.413 142.412 360.813 142.628C361.213 142.836 361.529 143.152 361.761 143.576C361.993 144 362.109 144.516 362.109 145.124V149H361.029V145.28C361.029 144.624 360.865 144.124 360.537 143.78C360.217 143.428 359.781 143.252 359.229 143.252C358.661 143.252 358.209 143.436 357.873 143.804C357.537 144.164 357.369 144.688 357.369 145.376V149H356.289V145.28C356.289 144.624 356.125 144.124 355.797 143.78C355.477 143.428 355.041 143.252 354.489 143.252C353.921 143.252 353.469 143.436 353.133 143.804C352.797 144.164 352.629 144.688 352.629 145.376V149H351.537V142.424H352.629V143.372C352.845 143.028 353.133 142.764 353.493 142.58C353.861 142.396 354.265 142.304 354.705 142.304C355.257 142.304 355.745 142.428 356.169 142.676C356.593 142.924 356.909 143.288 357.117 143.768C357.301 143.304 357.605 142.944 358.029 142.688C358.453 142.432 358.925 142.304 359.445 142.304ZM369.901 145.46C369.901 145.668 369.889 145.888 369.865 146.12H364.609C364.649 146.768 364.869 147.276 365.269 147.644C365.677 148.004 366.169 148.184 366.745 148.184C367.217 148.184 367.609 148.076 367.921 147.86C368.241 147.636 368.465 147.34 368.593 146.972H369.769C369.593 147.604 369.241 148.12 368.713 148.52C368.185 148.912 367.529 149.108 366.745 149.108C366.121 149.108 365.561 148.968 365.065 148.688C364.577 148.408 364.193 148.012 363.913 147.5C363.633 146.98 363.493 146.38 363.493 145.7C363.493 145.02 363.629 144.424 363.901 143.912C364.173 143.4 364.553 143.008 365.041 142.736C365.537 142.456 366.105 142.316 366.745 142.316C367.369 142.316 367.921 142.452 368.401 142.724C368.881 142.996 369.249 143.372 369.505 143.852C369.769 144.324 369.901 144.86 369.901 145.46ZM368.773 145.232C368.773 144.816 368.681 144.46 368.497 144.164C368.313 143.86 368.061 143.632 367.741 143.48C367.429 143.32 367.081 143.24 366.697 143.24C366.145 143.24 365.673 143.416 365.281 143.768C364.897 144.12 364.677 144.608 364.621 145.232H368.773Z" fill="#1C1C1C"/>
<line y1="77.5" x2="490" y2="77.5" stroke="#C5C5C5"/>
<rect x="29.5" y="831.5" width="365" height="47" rx="1.5" fill="white" stroke="#E8E8E8"/>
<path d="M371.741 846.116L370.241 847.773H364.407C364.28 847.773 364.154 847.8 364.036 847.852C363.918 847.904 363.812 847.981 363.721 848.078C363.631 848.175 363.56 848.29 363.511 848.417C363.463 848.544 363.438 848.68 363.438 848.817V862.362C363.437 862.639 363.539 862.905 363.721 863.102C363.903 863.299 364.149 863.41 364.407 863.412H383.593C383.851 863.41 384.097 863.299 384.279 863.102C384.461 862.905 384.563 862.639 384.563 862.362V848.817C384.563 848.68 384.537 848.544 384.489 848.417C384.44 848.29 384.369 848.175 384.279 848.078C384.188 847.981 384.082 847.904 383.964 847.852C383.846 847.8 383.72 847.773 383.593 847.773H377.759L376.259 846.116H371.741ZM381.995 849.464C382.259 849.464 382.513 849.577 382.7 849.779C382.887 849.98 382.992 850.253 382.992 850.538C382.992 850.822 382.887 851.095 382.7 851.296C382.513 851.498 382.259 851.611 381.995 851.611C381.731 851.611 381.477 851.498 381.29 851.296C381.103 851.095 380.998 850.822 380.998 850.538C380.998 850.253 381.103 849.98 381.29 849.779C381.477 849.577 381.731 849.464 381.995 849.464ZM374 851.331C374.912 851.331 375.803 851.622 376.561 852.167C377.319 852.713 377.91 853.488 378.259 854.395C378.608 855.302 378.699 856.301 378.521 857.263C378.343 858.226 377.904 859.111 377.259 859.805C376.615 860.499 375.793 860.972 374.899 861.164C374.005 861.355 373.078 861.257 372.236 860.881C371.394 860.506 370.674 859.869 370.167 859.053C369.661 858.237 369.39 857.277 369.39 856.295C369.39 854.978 369.876 853.716 370.741 852.785C371.605 851.854 372.777 851.331 374 851.331V851.331Z" stroke="#2F88FF" stroke-linecap="round" stroke-linejoin="round"/>
<path d="M47.6908 848.292V847.003C47.6901 846.854 47.7168 846.706 47.7694 846.569C47.8219 846.431 47.8993 846.306 47.997 846.201C48.0947 846.095 48.2109 846.012 48.3387 845.955C48.4665 845.899 48.6035 845.87 48.7417 845.871H53.5354C54.6188 845.871 56.5471 848.023 57.5004 848.076H65.6796C65.9137 848.076 66.1383 848.176 66.3039 848.354C66.4695 848.533 66.5625 848.774 66.5625 849.027V860.571C66.5626 860.722 66.5343 860.873 66.4795 861.012C66.4247 861.152 66.3444 861.278 66.2433 861.384C66.1423 861.489 66.0226 861.572 65.8913 861.627C65.76 861.681 65.6199 861.707 65.4792 861.702H64.3092V851.453C64.3099 851.329 64.2877 851.205 64.2439 851.09C64.2002 850.975 64.1356 850.87 64.0541 850.781C63.9725 850.693 63.8755 850.623 63.7687 850.575C63.6619 850.527 63.5474 850.502 63.4317 850.503H55.2471C54.2992 850.444 52.3763 848.292 51.2821 848.292H46.4937C46.3553 848.291 46.2181 848.32 46.0899 848.376C45.9618 848.433 45.8453 848.516 45.7472 848.621C45.649 848.726 45.5712 848.851 45.518 848.989C45.4649 849.127 45.4375 849.274 45.4375 849.423V862.997C45.4375 863.298 45.5482 863.585 45.7453 863.798C45.9424 864.01 46.2096 864.129 46.4883 864.129H63.28C63.4182 864.13 63.5552 864.101 63.683 864.045C63.8108 863.988 63.9269 863.905 64.0247 863.799C64.1224 863.694 64.1998 863.569 64.2523 863.431C64.3049 863.294 64.3316 863.146 64.3308 862.997V862.997V853.25" stroke="#2F88FF" stroke-linecap="round" stroke-linejoin="round"/>
<path d="M94.288 850.66V851.776H92.068V859H90.7V851.776H88.468V850.66H94.288ZM101.625 852.388L97.5694 862.108H96.1534L97.4974 858.892L94.8934 852.388H96.4174L98.2774 857.428L100.209 852.388H101.625ZM104.026 853.36C104.258 853.056 104.574 852.8 104.974 852.592C105.374 852.384 105.826 852.28 106.33 852.28C106.906 852.28 107.43 852.424 107.902 852.712C108.382 852.992 108.758 853.388 109.03 853.9C109.302 854.412 109.438 855 109.438 855.664C109.438 856.328 109.302 856.924 109.03 857.452C108.758 857.972 108.382 858.38 107.902 858.676C107.43 858.964 106.906 859.108 106.33 859.108C105.826 859.108 105.378 859.008 104.986 858.808C104.594 858.6 104.274 858.344 104.026 858.04V862.144H102.658V852.388H104.026V853.36ZM108.046 855.664C108.046 855.208 107.95 854.816 107.758 854.488C107.574 854.152 107.326 853.9 107.014 853.732C106.71 853.556 106.382 853.468 106.03 853.468C105.686 853.468 105.358 853.556 105.046 853.732C104.742 853.908 104.494 854.164 104.302 854.5C104.118 854.836 104.026 855.232 104.026 855.688C104.026 856.144 104.118 856.544 104.302 856.888C104.494 857.224 104.742 857.48 105.046 857.656C105.358 857.832 105.686 857.92 106.03 857.92C106.382 857.92 106.71 857.832 107.014 857.656C107.326 857.472 107.574 857.208 107.758 856.864C107.95 856.52 108.046 856.12 108.046 855.664ZM116.851 855.532C116.851 855.78 116.835 856.004 116.803 856.204H111.751C111.791 856.732 111.987 857.156 112.339 857.476C112.691 857.796 113.123 857.956 113.635 857.956C114.371 857.956 114.891 857.648 115.195 857.032H116.671C116.471 857.64 116.107 858.14 115.579 858.532C115.059 858.916 114.411 859.108 113.635 859.108C113.003 859.108 112.435 858.968 111.931 858.688C111.435 858.4 111.043 858 110.755 857.488C110.475 856.968 110.335 856.368 110.335 855.688C110.335 855.008 110.471 854.412 110.743 853.9C111.023 853.38 111.411 852.98 111.907 852.7C112.411 852.42 112.987 852.28 113.635 852.28C114.259 852.28 114.815 852.416 115.303 852.688C115.791 852.96 116.171 853.344 116.443 853.84C116.715 854.328 116.851 854.892 116.851 855.532ZM115.423 855.1C115.415 854.596 115.235 854.192 114.883 853.888C114.531 853.584 114.095 853.432 113.575 853.432C113.103 853.432 112.699 853.584 112.363 853.888C112.027 854.184 111.827 854.588 111.763 855.1H115.423ZM127.266 852.388L123.21 862.108H121.794L123.138 858.892L120.534 852.388H122.058L123.918 857.428L125.85 852.388H127.266ZM131.166 859.108C130.542 859.108 129.978 858.968 129.474 858.688C128.97 858.4 128.574 858 128.286 857.488C127.998 856.968 127.854 856.368 127.854 855.688C127.854 855.016 128.002 854.42 128.298 853.9C128.594 853.38 128.998 852.98 129.51 852.7C130.022 852.42 130.594 852.28 131.226 852.28C131.858 852.28 132.43 852.42 132.942 852.7C133.454 852.98 133.858 853.38 134.154 853.9C134.45 854.42 134.598 855.016 134.598 855.688C134.598 856.36 134.446 856.956 134.142 857.476C133.838 857.996 133.422 858.4 132.894 858.688C132.374 858.968 131.798 859.108 131.166 859.108ZM131.166 857.92C131.518 857.92 131.846 857.836 132.15 857.668C132.462 857.5 132.714 857.248 132.906 856.912C133.098 856.576 133.194 856.168 133.194 855.688C133.194 855.208 133.102 854.804 132.918 854.476C132.734 854.14 132.49 853.888 132.186 853.72C131.882 853.552 131.554 853.468 131.202 853.468C130.85 853.468 130.522 853.552 130.218 853.72C129.922 853.888 129.686 854.14 129.51 854.476C129.334 854.804 129.246 855.208 129.246 855.688C129.246 856.4 129.426 856.952 129.786 857.344C130.154 857.728 130.614 857.92 131.166 857.92ZM141.939 852.388V859H140.571V858.22C140.355 858.492 140.071 858.708 139.719 858.868C139.375 859.02 139.007 859.096 138.615 859.096C138.095 859.096 137.627 858.988 137.211 858.772C136.803 858.556 136.479 858.236 136.239 857.812C136.007 857.388 135.891 856.876 135.891 856.276V852.388H137.247V856.072C137.247 856.664 137.395 857.12 137.691 857.44C137.987 857.752 138.391 857.908 138.903 857.908C139.415 857.908 139.819 857.752 140.115 857.44C140.419 857.12 140.571 856.664 140.571 856.072V852.388H141.939ZM145.112 853.348C145.312 853.012 145.576 852.752 145.904 852.568C146.24 852.376 146.636 852.28 147.092 852.28V853.696H146.744C146.208 853.696 145.8 853.832 145.52 854.104C145.248 854.376 145.112 854.848 145.112 855.52V859H143.744V852.388H145.112V853.348ZM159.47 852.28C159.99 852.28 160.454 852.388 160.862 852.604C161.278 852.82 161.602 853.14 161.834 853.564C162.074 853.988 162.194 854.5 162.194 855.1V859H160.838V855.304C160.838 854.712 160.69 854.26 160.394 853.948C160.098 853.628 159.694 853.468 159.182 853.468C158.67 853.468 158.262 853.628 157.958 853.948C157.662 854.26 157.514 854.712 157.514 855.304V859H156.158V855.304C156.158 854.712 156.01 854.26 155.714 853.948C155.418 853.628 155.014 853.468 154.502 853.468C153.99 853.468 153.582 853.628 153.278 853.948C152.982 854.26 152.834 854.712 152.834 855.304V859H151.466V852.388H152.834V853.144C153.058 852.872 153.342 852.66 153.686 852.508C154.03 852.356 154.398 852.28 154.79 852.28C155.318 852.28 155.79 852.392 156.206 852.616C156.622 852.84 156.942 853.164 157.166 853.588C157.366 853.188 157.678 852.872 158.102 852.64C158.526 852.4 158.982 852.28 159.47 852.28ZM169.995 855.532C169.995 855.78 169.979 856.004 169.947 856.204H164.895C164.935 856.732 165.131 857.156 165.483 857.476C165.835 857.796 166.267 857.956 166.779 857.956C167.515 857.956 168.035 857.648 168.339 857.032H169.815C169.615 857.64 169.251 858.14 168.723 858.532C168.203 858.916 167.555 859.108 166.779 859.108C166.147 859.108 165.579 858.968 165.075 858.688C164.579 858.4 164.187 858 163.899 857.488C163.619 856.968 163.479 856.368 163.479 855.688C163.479 855.008 163.615 854.412 163.887 853.9C164.167 853.38 164.555 852.98 165.051 852.7C165.555 852.42 166.131 852.28 166.779 852.28C167.403 852.28 167.959 852.416 168.447 852.688C168.935 852.96 169.315 853.344 169.587 853.84C169.859 854.328 169.995 854.892 169.995 855.532ZM168.567 855.1C168.559 854.596 168.379 854.192 168.027 853.888C167.675 853.584 167.239 853.432 166.719 853.432C166.247 853.432 165.843 853.584 165.507 853.888C165.171 854.184 164.971 854.588 164.907 855.1H168.567ZM173.741 859.108C173.221 859.108 172.753 859.016 172.337 858.832C171.929 858.64 171.605 858.384 171.365 858.064C171.125 857.736 170.997 857.372 170.981 856.972H172.397C172.421 857.252 172.553 857.488 172.793 857.68C173.041 857.864 173.349 857.956 173.717 857.956C174.101 857.956 174.397 857.884 174.605 857.74C174.821 857.588 174.929 857.396 174.929 857.164C174.929 856.916 174.809 856.732 174.569 856.612C174.337 856.492 173.965 856.36 173.453 856.216C172.957 856.08 172.553 855.948 172.241 855.82C171.929 855.692 171.657 855.496 171.425 855.232C171.201 854.968 171.089 854.62 171.089 854.188C171.089 853.836 171.193 853.516 171.401 853.228C171.609 852.932 171.905 852.7 172.289 852.532C172.681 852.364 173.129 852.28 173.633 852.28C174.385 852.28 174.989 852.472 175.445 852.856C175.909 853.232 176.157 853.748 176.189 854.404H174.821C174.797 854.108 174.677 853.872 174.461 853.696C174.245 853.52 173.953 853.432 173.585 853.432C173.225 853.432 172.949 853.5 172.757 853.636C172.565 853.772 172.469 853.952 172.469 854.176C172.469 854.352 172.533 854.5 172.661 854.62C172.789 854.74 172.945 854.836 173.129 854.908C173.313 854.972 173.585 855.056 173.945 855.16C174.425 855.288 174.817 855.42 175.121 855.556C175.433 855.684 175.701 855.876 175.925 856.132C176.149 856.388 176.265 856.728 176.273 857.152C176.273 857.528 176.169 857.864 175.961 858.16C175.753 858.456 175.457 858.688 175.073 858.856C174.697 859.024 174.253 859.108 173.741 859.108ZM180.152 859.108C179.632 859.108 179.164 859.016 178.748 858.832C178.34 858.64 178.016 858.384 177.776 858.064C177.536 857.736 177.408 857.372 177.392 856.972H178.808C178.832 857.252 178.964 857.488 179.204 857.68C179.452 857.864 179.76 857.956 180.128 857.956C180.512 857.956 180.808 857.884 181.016 857.74C181.232 857.588 181.34 857.396 181.34 857.164C181.34 856.916 181.22 856.732 180.98 856.612C180.748 856.492 180.376 856.36 179.864 856.216C179.368 856.08 178.964 855.948 178.652 855.82C178.34 855.692 178.068 855.496 177.836 855.232C177.612 854.968 177.5 854.62 177.5 854.188C177.5 853.836 177.604 853.516 177.812 853.228C178.02 852.932 178.316 852.7 178.7 852.532C179.092 852.364 179.54 852.28 180.044 852.28C180.796 852.28 181.4 852.472 181.856 852.856C182.32 853.232 182.568 853.748 182.6 854.404H181.232C181.208 854.108 181.088 853.872 180.872 853.696C180.656 853.52 180.364 853.432 179.996 853.432C179.636 853.432 179.36 853.5 179.168 853.636C178.976 853.772 178.88 853.952 178.88 854.176C178.88 854.352 178.944 854.5 179.072 854.62C179.2 854.74 179.356 854.836 179.54 854.908C179.724 854.972 179.996 855.056 180.356 855.16C180.836 855.288 181.228 855.42 181.532 855.556C181.844 855.684 182.112 855.876 182.336 856.132C182.56 856.388 182.676 856.728 182.684 857.152C182.684 857.528 182.58 857.864 182.372 858.16C182.164 858.456 181.868 858.688 181.484 858.856C181.108 859.024 180.664 859.108 180.152 859.108ZM183.706 855.664C183.706 855 183.842 854.412 184.114 853.9C184.394 853.388 184.77 852.992 185.242 852.712C185.722 852.424 186.25 852.28 186.826 852.28C187.346 852.28 187.798 852.384 188.182 852.592C188.574 852.792 188.886 853.044 189.118 853.348V852.388H190.498V859H189.118V858.016C188.886 858.328 188.57 858.588 188.17 858.796C187.77 859.004 187.314 859.108 186.802 859.108C186.234 859.108 185.714 858.964 185.242 858.676C184.77 858.38 184.394 857.972 184.114 857.452C183.842 856.924 183.706 856.328 183.706 855.664ZM189.118 855.688C189.118 855.232 189.022 854.836 188.83 854.5C188.646 854.164 188.402 853.908 188.098 853.732C187.794 853.556 187.466 853.468 187.114 853.468C186.762 853.468 186.434 853.556 186.13 853.732C185.826 853.9 185.578 854.152 185.386 854.488C185.202 854.816 185.11 855.208 185.11 855.664C185.11 856.12 185.202 856.52 185.386 856.864C185.578 857.208 185.826 857.472 186.13 857.656C186.442 857.832 186.77 857.92 187.114 857.92C187.466 857.92 187.794 857.832 188.098 857.656C188.402 857.48 188.646 857.224 188.83 856.888C189.022 856.544 189.118 856.144 189.118 855.688ZM194.959 852.28C195.471 852.28 195.923 852.384 196.315 852.592C196.715 852.792 197.027 853.044 197.251 853.348V852.388H198.631V859.108C198.631 859.716 198.503 860.256 198.247 860.728C197.991 861.208 197.619 861.584 197.131 861.856C196.651 862.128 196.075 862.264 195.403 862.264C194.507 862.264 193.763 862.052 193.171 861.628C192.579 861.212 192.243 860.644 192.163 859.924H193.519C193.623 860.268 193.843 860.544 194.179 860.752C194.523 860.968 194.931 861.076 195.403 861.076C195.955 861.076 196.399 860.908 196.735 860.572C197.079 860.236 197.251 859.748 197.251 859.108V858.004C197.019 858.316 196.703 858.58 196.303 858.796C195.911 859.004 195.463 859.108 194.959 859.108C194.383 859.108 193.855 858.964 193.375 858.676C192.903 858.38 192.527 857.972 192.247 857.452C191.975 856.924 191.839 856.328 191.839 855.664C191.839 855 191.975 854.412 192.247 853.9C192.527 853.388 192.903 852.992 193.375 852.712C193.855 852.424 194.383 852.28 194.959 852.28ZM197.251 855.688C197.251 855.232 197.155 854.836 196.963 854.5C196.779 854.164 196.535 853.908 196.231 853.732C195.927 853.556 195.599 853.468 195.247 853.468C194.895 853.468 194.567 853.556 194.263 853.732C193.959 853.9 193.711 854.152 193.519 854.488C193.335 854.816 193.243 855.208 193.243 855.664C193.243 856.12 193.335 856.52 193.519 856.864C193.711 857.208 193.959 857.472 194.263 857.656C194.575 857.832 194.903 857.92 195.247 857.92C195.599 857.92 195.927 857.832 196.231 857.656C196.535 857.48 196.779 857.224 196.963 856.888C197.155 856.544 197.251 856.144 197.251 855.688ZM206.487 855.532C206.487 855.78 206.471 856.004 206.439 856.204H201.387C201.427 856.732 201.623 857.156 201.975 857.476C202.327 857.796 202.759 857.956 203.271 857.956C204.007 857.956 204.527 857.648 204.831 857.032H206.307C206.107 857.64 205.743 858.14 205.215 858.532C204.695 858.916 204.047 859.108 203.271 859.108C202.639 859.108 202.071 858.968 201.567 858.688C201.071 858.4 200.679 858 200.391 857.488C200.111 856.968 199.971 856.368 199.971 855.688C199.971 855.008 200.107 854.412 200.379 853.9C200.659 853.38 201.047 852.98 201.543 852.7C202.047 852.42 202.623 852.28 203.271 852.28C203.895 852.28 204.451 852.416 204.939 852.688C205.427 852.96 205.807 853.344 206.079 853.84C206.351 854.328 206.487 854.892 206.487 855.532ZM205.059 855.1C205.051 854.596 204.871 854.192 204.519 853.888C204.167 853.584 203.731 853.432 203.211 853.432C202.739 853.432 202.335 853.584 201.999 853.888C201.663 854.184 201.463 854.588 201.399 855.1H205.059ZM214.371 852.28C214.875 852.28 215.323 852.388 215.715 852.604C216.115 852.82 216.427 853.14 216.651 853.564C216.883 853.988 216.999 854.5 216.999 855.1V859H215.643V855.304C215.643 854.712 215.495 854.26 215.199 853.948C214.903 853.628 214.499 853.468 213.987 853.468C213.475 853.468 213.067 853.628 212.763 853.948C212.467 854.26 212.319 854.712 212.319 855.304V859H210.951V850.12H212.319V853.156C212.551 852.876 212.843 852.66 213.195 852.508C213.555 852.356 213.947 852.28 214.371 852.28ZM224.804 855.532C224.804 855.78 224.788 856.004 224.756 856.204H219.704C219.744 856.732 219.94 857.156 220.292 857.476C220.644 857.796 221.076 857.956 221.588 857.956C222.324 857.956 222.844 857.648 223.148 857.032H224.624C224.424 857.64 224.06 858.14 223.532 858.532C223.012 858.916 222.364 859.108 221.588 859.108C220.956 859.108 220.388 858.968 219.884 858.688C219.388 858.4 218.996 858 218.708 857.488C218.428 856.968 218.288 856.368 218.288 855.688C218.288 855.008 218.424 854.412 218.696 853.9C218.976 853.38 219.364 852.98 219.86 852.7C220.364 852.42 220.94 852.28 221.588 852.28C222.212 852.28 222.768 852.416 223.256 852.688C223.744 852.96 224.124 853.344 224.396 853.84C224.668 854.328 224.804 854.892 224.804 855.532ZM223.376 855.1C223.368 854.596 223.188 854.192 222.836 853.888C222.484 853.584 222.048 853.432 221.528 853.432C221.056 853.432 220.652 853.584 220.316 853.888C219.98 854.184 219.78 854.588 219.716 855.1H223.376ZM227.518 853.348C227.718 853.012 227.982 852.752 228.31 852.568C228.646 852.376 229.042 852.28 229.498 852.28V853.696H229.15C228.614 853.696 228.206 853.832 227.926 854.104C227.654 854.376 227.518 854.848 227.518 855.52V859H226.15V852.388H227.518V853.348ZM236.815 855.532C236.815 855.78 236.799 856.004 236.767 856.204H231.715C231.755 856.732 231.951 857.156 232.303 857.476C232.655 857.796 233.087 857.956 233.599 857.956C234.335 857.956 234.855 857.648 235.159 857.032H236.635C236.435 857.64 236.071 858.14 235.543 858.532C235.023 858.916 234.375 859.108 233.599 859.108C232.967 859.108 232.399 858.968 231.895 858.688C231.399 858.4 231.007 858 230.719 857.488C230.439 856.968 230.299 856.368 230.299 855.688C230.299 855.008 230.435 854.412 230.707 853.9C230.987 853.38 231.375 852.98 231.871 852.7C232.375 852.42 232.951 852.28 233.599 852.28C234.223 852.28 234.779 852.416 235.267 852.688C235.755 852.96 236.135 853.344 236.407 853.84C236.679 854.328 236.815 854.892 236.815 855.532ZM235.387 855.1C235.379 854.596 235.199 854.192 234.847 853.888C234.495 853.584 234.059 853.432 233.539 853.432C233.067 853.432 232.663 853.584 232.327 853.888C231.991 854.184 231.791 854.588 231.727 855.1H235.387ZM238.714 859.084C238.466 859.084 238.258 859 238.09 858.832C237.922 858.664 237.838 858.456 237.838 858.208C237.838 857.96 237.922 857.752 238.09 857.584C238.258 857.416 238.466 857.332 238.714 857.332C238.954 857.332 239.158 857.416 239.326 857.584C239.494 857.752 239.578 857.96 239.578 858.208C239.578 858.456 239.494 858.664 239.326 858.832C239.158 859 238.954 859.084 238.714 859.084Z" fill="#9A9A9A"/>
<path d="M397.666 31.1797C397.683 31.1114 397.713 31.0472 397.755 30.9908C397.797 30.9344 397.85 30.8869 397.911 30.8511C397.971 30.8153 398.038 30.7918 398.108 30.7821C398.177 30.7724 398.248 30.7766 398.316 30.7945C400.206 31.3063 401.928 32.3038 403.312 33.6879C404.696 35.0719 405.694 36.7943 406.205 38.6836C406.223 38.7516 406.228 38.8225 406.218 38.8922C406.208 38.9619 406.185 39.029 406.149 39.0895C406.113 39.15 406.066 39.2029 406.009 39.2449C405.953 39.2869 405.889 39.3174 405.82 39.3344L405.688 39.3609C405.57 39.3595 405.455 39.3199 405.362 39.2481C405.269 39.1762 405.201 39.076 405.17 38.9625C404.708 37.2539 403.807 35.6961 402.555 34.4447C401.304 33.1933 399.746 32.2919 398.037 31.8305C397.969 31.8136 397.906 31.7832 397.85 31.7409C397.794 31.6987 397.747 31.6455 397.712 31.5847C397.678 31.5238 397.655 31.4566 397.647 31.387C397.639 31.3174 397.646 31.2468 397.666 31.1797V31.1797ZM396.935 35.9344C397.925 36.2 398.828 36.7215 399.554 37.4465C400.279 38.1715 400.8 39.0745 401.066 40.0649C401.097 40.1784 401.165 40.2786 401.258 40.3504C401.352 40.4223 401.466 40.4619 401.584 40.4633L401.716 40.4367C401.784 40.4199 401.848 40.3894 401.904 40.3472C401.96 40.3049 402.007 40.2518 402.042 40.1909C402.076 40.1301 402.098 40.0628 402.106 39.9932C402.114 39.9236 402.108 39.8531 402.088 39.7859C401.779 38.6153 401.165 37.5476 400.309 36.6914C399.452 35.8352 398.385 35.2212 397.214 34.9117C397.147 34.8917 397.076 34.8855 397.007 34.8935C396.937 34.9016 396.87 34.9236 396.809 34.9584C396.748 34.9931 396.695 35.0399 396.653 35.0958C396.611 35.1517 396.58 35.2156 396.563 35.2836C396.527 35.4192 396.545 35.5638 396.615 35.6858C396.685 35.8077 396.8 35.8971 396.935 35.9344ZM407.228 49.1891C407.012 50.8546 406.198 52.3848 404.937 53.4942C403.676 54.6036 402.055 55.2166 400.375 55.2188C390.122 55.2188 381.781 46.8781 381.781 36.625C381.783 34.9455 382.396 33.3241 383.506 32.0632C384.615 30.8023 386.145 29.9879 387.811 29.7719C388.154 29.7319 388.5 29.8034 388.799 29.9756C389.098 30.1478 389.334 30.4116 389.471 30.7281L392.141 36.957C392.244 37.1987 392.286 37.4623 392.263 37.7241C392.24 37.986 392.152 38.238 392.008 38.4578L389.803 41.8313C389.751 41.9064 389.721 41.9939 389.714 42.0849C389.707 42.1758 389.724 42.267 389.763 42.3492C390.81 44.4967 392.551 46.2281 394.704 47.2633C394.784 47.3031 394.873 47.3204 394.962 47.3134C395.051 47.3063 395.136 47.2753 395.209 47.2234L398.542 45.0055C398.762 44.8557 399.016 44.7638 399.28 44.7383C399.545 44.7128 399.812 44.7544 400.056 44.8594L406.272 47.5289C406.588 47.6663 406.852 47.9019 407.024 48.2009C407.197 48.4999 407.268 48.8464 407.228 49.1891V49.1891ZM405.847 48.5117L399.631 45.8422C399.55 45.8063 399.462 45.7912 399.374 45.7981C399.286 45.8051 399.201 45.8339 399.127 45.882L395.806 48.1C395.578 48.2549 395.313 48.3474 395.039 48.3684C394.764 48.3894 394.488 48.3381 394.239 48.2195C391.876 47.0743 389.964 45.1715 388.807 42.8141C388.689 42.5656 388.637 42.291 388.656 42.0166C388.674 41.7422 388.763 41.4772 388.913 41.2469L391.118 37.8734C391.167 37.7998 391.197 37.7147 391.204 37.6263C391.211 37.5379 391.195 37.4493 391.158 37.3688L388.488 31.1531C388.451 31.0563 388.386 30.9728 388.3 30.9136C388.215 30.8544 388.114 30.8222 388.01 30.8211H387.944C386.534 31.0048 385.239 31.695 384.301 32.7629C383.363 33.8307 382.845 35.2034 382.844 36.625C382.847 41.2735 384.695 45.7306 387.982 49.0176C391.269 52.3046 395.727 54.1527 400.375 54.1563C401.797 54.1553 403.169 53.6373 404.237 52.699C405.305 51.7606 405.995 50.4659 406.179 49.0563C406.19 48.9418 406.164 48.8268 406.104 48.7286C406.044 48.6304 405.954 48.5543 405.847 48.5117Z" fill="#2F88FF"/>
<path d="M447.652 39.2821V31.0883M447.652 41.6412V50.9117H472.748V33.59H459.219L447.652 41.6412ZM476.437 33.59V50.9117V33.59ZM472.748 35.3475H476.437H472.748ZM472.748 38.7992H476.437H472.748ZM472.748 42.2508H476.437H472.748ZM472.748 45.7025H476.437H472.748ZM472.748 49.1542H476.437H472.748Z" stroke="#2F88FF" stroke-linecap="round" stroke-linejoin="round"/>
<path d="M445.562 33.59H451.207L454.437 39.2821L458.103 31.0883" stroke="#2F88FF" stroke-linecap="round" stroke-linejoin="round"/>
<path d="M68.0111 46.65C66.2257 44.4737 64.0591 42.737 61.6477 41.5491C59.2363 40.3613 56.6324 39.748 54 39.748C51.3676 39.748 48.7637 40.3613 46.3523 41.5491C43.9409 42.737 41.7743 44.4737 39.9889 46.65C39.7132 46.9929 39.559 47.4377 39.5556 47.9V55.4C39.5614 55.8929 39.7396 56.3634 40.0515 56.7097C40.3634 57.0559 40.784 57.25 41.2222 57.25H66.7778C67.2198 57.25 67.6437 57.0524 67.9563 56.7008C68.2688 56.3492 68.4444 55.8723 68.4444 55.375V47.875C68.4356 47.4213 68.2817 46.9864 68.0111 46.65V46.65Z" fill="black"/>
<path d="M54 37.25C58.2956 37.25 61.7778 33.3325 61.7778 28.5C61.7778 23.6675 58.2956 19.75 54 19.75C49.7045 19.75 46.2222 23.6675 46.2222 28.5C46.2222 33.3325 49.7045 37.25 54 37.25Z" fill="black"/>
</svg>
