<svg width="1325" height="812" viewBox="0 0 1325 812" fill="none" xmlns="http://www.w3.org/2000/svg">
<g clip-path="url(#clip0_0_1)">
<rect x="950" width="375" height="812" rx="50" fill="#ECF0F3"/>
<circle cx="1012.5" cy="92.5" r="21.5" stroke="black" stroke-width="2"/>
<rect opacity="0.5" x="1050" y="82.5" width="135" height="5" fill="black"/>
<rect opacity="0.5" x="1050" y="97.5" width="105" height="5" fill="black"/>
<rect x="991" y="149" width="73" height="73" rx="19" stroke="black" stroke-width="2"/>
<rect x="1096" y="149" width="73" height="73" rx="19" stroke="black" stroke-width="2"/>
<rect x="1201" y="149" width="73" height="73" rx="19" stroke="black" stroke-width="2"/>
<rect x="1306" y="149" width="73" height="73" rx="19" stroke="black" stroke-width="2"/>
<rect x="991" y="257" width="293" height="148" rx="9" stroke="black" stroke-width="2"/>
<rect x="1021" y="277" width="225" height="3" fill="#9CABC2"/>
<rect x="1021" y="292" width="175" height="3" fill="#9CABC2"/>
<rect x="1021" y="307" width="225" height="3" fill="#9CABC2"/>
<rect x="1021" y="322" width="175" height="3" fill="#9CABC2"/>
<rect x="1021" y="337" width="225" height="3" fill="#9CABC2"/>
<rect x="1021" y="352" width="175" height="3" fill="#9CABC2"/>
<rect x="1021" y="367" width="225" height="3" fill="#9CABC2"/>
<rect x="1021" y="382" width="175" height="3" fill="#9CABC2"/>
<rect x="990" y="426" width="295" height="183" rx="10" fill="#9CABC2" fill-opacity="0.35"/>
<rect x="991" y="427" width="293" height="181" rx="9" stroke="#9CABC2" stroke-opacity="0.35" stroke-width="2"/>
<rect x="991" y="630" width="293" height="148" rx="9" stroke="black" stroke-width="2"/>
<rect x="1021" y="650" width="225" height="3" fill="#9CABC2"/>
<rect x="1021" y="665" width="175" height="3" fill="#9CABC2"/>
<rect x="1021" y="680" width="225" height="3" fill="#9CABC2"/>
<rect x="1021" y="695" width="175" height="3" fill="#9CABC2"/>
<rect x="1021" y="710" width="225" height="3" fill="#9CABC2"/>
<rect x="1021" y="725" width="175" height="3" fill="#9CABC2"/>
<rect x="1021" y="740" width="225" height="3" fill="#9CABC2"/>
<rect x="1021" y="755" width="175" height="3" fill="#9CABC2"/>
</g>
<rect x="951" y="1" width="373" height="810" rx="49" stroke="black" stroke-width="2"/>
<g clip-path="url(#clip1_0_1)">
<rect x="475" width="375" height="812" rx="50" fill="#ECF0F3"/>
<circle cx="530" cy="740" r="14" stroke="black" stroke-width="2"/>
<circle cx="596" cy="740" r="14" stroke="black" stroke-width="2"/>
<circle cx="662" cy="740" r="14.5" fill="black" stroke="black"/>
<circle cx="728" cy="740" r="14" stroke="black" stroke-width="2"/>
<circle cx="794" cy="740" r="14" stroke="black" stroke-width="2"/>
<circle cx="542.5" cy="267.5" r="21.5" stroke="black" stroke-width="2"/>
<path opacity="0.5" fill-rule="evenodd" clip-rule="evenodd" d="M715 258.992H580V261.992H715V258.992ZM685 273.008H580V276.008H685V273.008Z" fill="black"/>
<path fill-rule="evenodd" clip-rule="evenodd" d="M790 280.5C797.18 280.5 803 274.68 803 267.5C803 260.32 797.18 254.5 790 254.5C782.82 254.5 777 260.32 777 267.5C777 274.68 782.82 280.5 790 280.5ZM790 282.5C798.284 282.5 805 275.784 805 267.5C805 259.216 798.284 252.5 790 252.5C781.716 252.5 775 259.216 775 267.5C775 275.784 781.716 282.5 790 282.5ZM788.815 271.185C788.77 271.267 788.713 271.345 788.643 271.415C788.253 271.805 787.62 271.805 787.229 271.415L782.898 267.083C782.507 266.693 782.507 266.06 782.898 265.669C783.288 265.279 783.922 265.279 784.312 265.669L787.907 269.264L795.778 261.393C796.169 261.003 796.802 261.003 797.192 261.393C797.583 261.784 797.583 262.417 797.192 262.808L788.815 271.185Z" fill="black"/>
<circle cx="542.5" cy="337.5" r="21.5" stroke="black" stroke-width="2"/>
<path opacity="0.5" fill-rule="evenodd" clip-rule="evenodd" d="M715 328.992H580V331.992H715V328.992ZM685 343.008H580V346.008H685V343.008Z" fill="black"/>
<path fill-rule="evenodd" clip-rule="evenodd" d="M790 350.5C797.18 350.5 803 344.68 803 337.5C803 330.32 797.18 324.5 790 324.5C782.82 324.5 777 330.32 777 337.5C777 344.68 782.82 350.5 790 350.5ZM790 352.5C798.284 352.5 805 345.784 805 337.5C805 329.216 798.284 322.5 790 322.5C781.716 322.5 775 329.216 775 337.5C775 345.784 781.716 352.5 790 352.5ZM788.815 341.185C788.77 341.267 788.713 341.345 788.643 341.415C788.253 341.805 787.62 341.805 787.229 341.415L782.898 337.083C782.507 336.693 782.507 336.06 782.898 335.669C783.288 335.279 783.922 335.279 784.312 335.669L787.907 339.264L795.778 331.393C796.169 331.003 796.802 331.003 797.192 331.393C797.583 331.784 797.583 332.417 797.192 332.808L788.815 341.185Z" fill="black"/>
<circle cx="542.5" cy="407.5" r="21.5" stroke="black" stroke-width="2"/>
<path opacity="0.5" fill-rule="evenodd" clip-rule="evenodd" d="M715 398.992H580V401.992H715V398.992ZM685 413.008H580V416.008H685V413.008Z" fill="black"/>
<path fill-rule="evenodd" clip-rule="evenodd" d="M790 420.5C797.18 420.5 803 414.68 803 407.5C803 400.32 797.18 394.5 790 394.5C782.82 394.5 777 400.32 777 407.5C777 414.68 782.82 420.5 790 420.5ZM790 422.5C798.284 422.5 805 415.784 805 407.5C805 399.216 798.284 392.5 790 392.5C781.716 392.5 775 399.216 775 407.5C775 415.784 781.716 422.5 790 422.5ZM788.815 411.185C788.77 411.267 788.713 411.345 788.643 411.415C788.253 411.805 787.62 411.805 787.229 411.415L782.898 407.083C782.507 406.693 782.507 406.06 782.898 405.669C783.288 405.279 783.922 405.279 784.312 405.669L787.907 409.264L795.778 401.393C796.169 401.003 796.802 401.003 797.192 401.393C797.583 401.784 797.583 402.417 797.192 402.808L788.815 411.185Z" fill="black"/>
<circle cx="542.5" cy="477.5" r="21.5" stroke="black" stroke-width="2"/>
<path opacity="0.5" fill-rule="evenodd" clip-rule="evenodd" d="M715 468.992H580V471.992H715V468.992ZM685 483.008H580V486.008H685V483.008Z" fill="black"/>
<path fill-rule="evenodd" clip-rule="evenodd" d="M790 490.5C797.18 490.5 803 484.68 803 477.5C803 470.32 797.18 464.5 790 464.5C782.82 464.5 777 470.32 777 477.5C777 484.68 782.82 490.5 790 490.5ZM790 492.5C798.284 492.5 805 485.784 805 477.5C805 469.216 798.284 462.5 790 462.5C781.716 462.5 775 469.216 775 477.5C775 485.784 781.716 492.5 790 492.5ZM788.815 481.185C788.77 481.267 788.713 481.345 788.643 481.415C788.253 481.805 787.62 481.805 787.229 481.415L782.898 477.083C782.507 476.693 782.507 476.06 782.898 475.669C783.288 475.279 783.922 475.279 784.312 475.669L787.907 479.264L795.778 471.393C796.169 471.003 796.802 471.003 797.192 471.393C797.583 471.784 797.583 472.417 797.192 472.808L788.815 481.185Z" fill="black"/>
<circle cx="542.5" cy="547.5" r="21.5" stroke="black" stroke-width="2"/>
<path opacity="0.5" fill-rule="evenodd" clip-rule="evenodd" d="M715 538.992H580V541.992H715V538.992ZM685 553.008H580V556.008H685V553.008Z" fill="black"/>
<path fill-rule="evenodd" clip-rule="evenodd" d="M790 560.5C797.18 560.5 803 554.68 803 547.5C803 540.32 797.18 534.5 790 534.5C782.82 534.5 777 540.32 777 547.5C777 554.68 782.82 560.5 790 560.5ZM790 562.5C798.284 562.5 805 555.784 805 547.5C805 539.216 798.284 532.5 790 532.5C781.716 532.5 775 539.216 775 547.5C775 555.784 781.716 562.5 790 562.5ZM788.815 551.185C788.77 551.267 788.713 551.345 788.643 551.415C788.253 551.805 787.62 551.805 787.229 551.415L782.898 547.083C782.507 546.693 782.507 546.06 782.898 545.669C783.288 545.279 783.922 545.279 784.312 545.669L787.907 549.264L795.778 541.393C796.169 541.003 796.802 541.003 797.192 541.393C797.583 541.784 797.583 542.417 797.192 542.808L788.815 551.185Z" fill="black"/>
<circle cx="542.5" cy="617.5" r="21.5" stroke="black" stroke-width="2"/>
<path opacity="0.5" fill-rule="evenodd" clip-rule="evenodd" d="M715 608.992H580V611.992H715V608.992ZM685 623.008H580V626.008H685V623.008Z" fill="black"/>
<path fill-rule="evenodd" clip-rule="evenodd" d="M790 630.5C797.18 630.5 803 624.68 803 617.5C803 610.32 797.18 604.5 790 604.5C782.82 604.5 777 610.32 777 617.5C777 624.68 782.82 630.5 790 630.5ZM790 632.5C798.284 632.5 805 625.784 805 617.5C805 609.216 798.284 602.5 790 602.5C781.716 602.5 775 609.216 775 617.5C775 625.784 781.716 632.5 790 632.5ZM788.815 621.185C788.77 621.267 788.713 621.345 788.643 621.415C788.253 621.805 787.62 621.805 787.229 621.415L782.898 617.083C782.507 616.693 782.507 616.06 782.898 615.669C783.288 615.279 783.922 615.279 784.312 615.669L787.907 619.264L795.778 611.393C796.169 611.003 796.802 611.003 797.192 611.393C797.583 611.784 797.583 612.417 797.192 612.808L788.815 621.185Z" fill="black"/>
<rect x="516" y="126" width="73" height="73" rx="19" fill="#9CABC2" fill-opacity="0.35" stroke="#9CABC2" stroke-width="2"/>
<rect x="621" y="126" width="73" height="73" rx="19" fill="#9CABC2" fill-opacity="0.35" stroke="#9CABC2" stroke-width="2"/>
<rect x="726" y="126" width="73" height="73" rx="19" fill="#9CABC2" fill-opacity="0.35" stroke="#9CABC2" stroke-width="2"/>
<rect x="831" y="126" width="73" height="73" rx="19" fill="#9CABC2" fill-opacity="0.35" stroke="#9CABC2" stroke-width="2"/>
<rect opacity="0.5" x="520" y="80" width="135" height="5" fill="black"/>
<rect opacity="0.5" x="520" y="95" width="105" height="5" fill="black"/>
</g>
<rect x="476" y="1" width="373" height="810" rx="49" stroke="black" stroke-width="2"/>
<rect x="1" y="1" width="373" height="810" rx="49" fill="#ECF0F3"/>
<circle cx="187.5" cy="102.5" r="21.5" fill="black" stroke="black" stroke-width="2"/>
<rect x="46" y="314" width="283" height="48" rx="9" stroke="black" stroke-width="2"/>
<rect opacity="0.5" x="105" y="383" width="165" height="3" fill="black"/>
<rect x="46" y="407" width="283" height="48" rx="9" stroke="black" stroke-width="2"/>
<rect opacity="0.5" x="105" y="476" width="165" height="3" fill="black"/>
<rect opacity="0.5" x="105" y="499" width="165" height="3" fill="black"/>
<rect x="60" y="690" width="255" height="60" rx="30" fill="black"/>
<rect x="1" y="1" width="373" height="810" rx="49" stroke="black" stroke-width="2"/>
<circle cx="315" cy="720" r="3" fill="black"/>
<path d="M520 442.5L510 436.726V448.274L520 442.5ZM315 721H397.5V719H315V721ZM418.5 700V462.5H416.5V700H418.5ZM437.5 443.5H511V441.5H437.5V443.5ZM418.5 462.5C418.5 452.007 427.007 443.5 437.5 443.5V441.5C425.902 441.5 416.5 450.902 416.5 462.5H418.5ZM397.5 721C409.098 721 418.5 711.598 418.5 700H416.5C416.5 710.493 407.993 719 397.5 719V721Z" fill="black"/>
<circle cx="805" cy="618" r="3" fill="black"/>
<path d="M950 406L940 400.226V411.774L950 406ZM805 618.5H857.5V616.5H805V618.5ZM878.5 597.5V426H876.5V597.5H878.5ZM897.5 407H941V405H897.5V407ZM878.5 426C878.5 415.507 887.007 407 897.5 407V405C885.902 405 876.5 414.402 876.5 426H878.5ZM857.5 618.5C869.098 618.5 878.5 609.098 878.5 597.5H876.5C876.5 607.993 867.993 616.5 857.5 616.5V618.5Z" fill="black"/>
<defs>
<clipPath id="clip0_0_1">
<rect x="950" width="375" height="812" rx="50" fill="white"/>
</clipPath>
<clipPath id="clip1_0_1">
<rect x="475" width="375" height="812" rx="50" fill="white"/>
</clipPath>
</defs>
</svg>
